<?xml version="1.0" encoding="utf-8"?>
<!-- Generator: Adobe Illustrator 27.8.0, SVG Export Plug-In . SVG Version: 6.00 Build 0)  -->
<svg version="1.1" id="Camada_1" xmlns="http://www.w3.org/2000/svg" xmlns:xlink="http://www.w3.org/1999/xlink" x="0px" y="0px"
	 viewBox="0 0 147 203" style="enable-background:new 0 0 147 203;" xml:space="preserve">
<style type="text/css">
	.st0{fill:#5ABCAE;}
	.st1{fill:#A2D2B6;}
	.st2{fill:#7F4796;}
	.st3{fill:none;}
</style>
<path class="st0" d="M146.9,136.3c-5.2,20.1-18.5,36.8-36.3,46.6L98,164.4c10.4-5.1,18.9-13.4,24.2-23.5L146.9,136.3z"/>
<path class="st1" d="M110.6,182.9c-10.7,5.9-22.9,9.2-36,9.2c-28.6,0-53.4-16.1-66-39.7l20.6-3.8c10,13,26,21.4,44,21.4
	c8.9,0,17.3-2.1,24.8-5.7L110.6,182.9z"/>
<polygon class="st0" points="123.5,96.8 123.6,96.8 123.5,96.8 "/>
<path class="st0" d="M141.8,84.7L117,85.9c-4.8-6.2-11-11.3-18.1-14.9c-6.6-3.4-13.9-5.5-21.8-6c-1.3-0.1-2.6-0.1-3.9-0.1
	c-30.2,0-54.7,23.6-54.7,52.6c0,5.1,0.7,9.9,2.1,14.6c1.4,4.5,3.3,8.8,5.8,12.7l-19.8,3.8c-1.9-4.2-3.5-8.6-4.6-13.2
	C0.7,129.6,0,123.6,0,117.5c0-41.2,33.4-74.7,74.7-74.7c7,0,13.8,1,20.2,2.8c5.3,1.5,10.5,3.6,15.2,6.2
	C123.8,59.1,134.9,70.7,141.8,84.7z"/>
<path class="st2" d="M81.4,100.6c-0.8,1.3,0.4,2.8,1.9,2.6l40.2-6.4l0.1,0l3.4-0.6c1.8-0.3,2.8,1.8,1.5,3L13.1,202
	c-1.6,1.5-4-0.8-2.6-2.4l66.3-77.6c1.1-1.2-0.1-3.1-1.7-2.8L24,127.7c-1.7,0.3-2.8-1.7-1.7-2.9L77.1,65l17.8-19.4L136,0.6
	c1.4-1.6,4,0.2,2.9,2l-28.8,49.1L98.9,71L81.4,100.6z"/>
<line class="st3" x1="141.8" y1="84.7" x2="117" y2="85.9"/>
<line class="st3" x1="146.9" y1="136.3" x2="122.2" y2="140.9"/>
</svg>
